# xmcd CD database file
#
# Track frame offsets:
#	150
#	14012
#	27062
#	41462
#	50537
#	62125
#	74350
#	92462
#	107687
#	118937
#	132887
#	143087
#	153437
#	167687
#	182687
#	197162
#	210287
#	227987
#	243287
#	253262
#	262937
#	272425
#	284087
#	295712
#
# Disc length: 4128 seconds
#
# Revision: 4
# Processed by: cddbd v1.5.1PL2 Copyright (c) Steve Scherf et al.
# Submitted via: CDex 1.51
#
DISCID=5d101e18
DTITLE=Ofra Harnoy - Vivaldi - Cello Sonatas
DYEAR=1994
DGENRE=Baroque
TTITLE0=Sonata No. 5, RV 40 I Largo
TTITLE1=Sonata No. 5, RV 40 II Allegro
TTITLE2=Sonata No. 5, RV 40 III Largo
TTITLE3=Sonata No. 5, RV 40 IV Allegro
TTITLE4=Sonata No. 4, RV 45 I Largo 
TTITLE5=Sonata No. 4, RV 45 II Allegro
TTITLE6=Sonata No. 4, RV 45 III Largo
TTITLE7=Sonata No. 4, RV 45 IV Allegro
TTITLE8=Sonata No. 6, RV 46 I Largo
TTITLE9=Sonata No. 6, RV 46 II Allegro
TTITLE10=Sonata No. 6, RV 46 III Largo
TTITLE11=Sonata No. 6, RV 46 IV Allegro
TTITLE12=Sonata No. 3, RV 43 I Largo
TTITLE13=Sonata No. 3, RV 43 II Allegro
TTITLE14=Sonata No. 3, RV 43 III Largo
TTITLE15=Sonata No. 3, RV 43 IV Allegro
TTITLE16=Sonata No. 1, RV 47 I Largo
TTITLE17=Sonata No. 1, RV 47 I Allegro
TTITLE18=Sonata No. 1, RV 47 II Largo
TTITLE19=Sonata No. 1, RV 47 III Allegro
TTITLE20=Sonata No. 2, RV 41 I Largo
TTITLE21=Sonata No. 2, RV 41 II Allegro
TTITLE22=Sonata No. 2, RV 41 III Largo
TTITLE23=Sonata No. 2, RV 41 IV Allegro
EXTD=Antonio Vivaldi (1678-1741]\n6 Sonatas for Cello and Harpsichord, Op.14\nOfra Harnoy, cello\nCollin Tilney, harpsichord, organ\nMihai Tetel, cello continuo YEAR: 1994
EXTT0=
EXTT1=
EXTT2=
EXTT3=
EXTT4=
EXTT5=
EXTT6=
EXTT7=
EXTT8=
EXTT9=
EXTT10=
EXTT11=
EXTT12=
EXTT13=
EXTT14=
EXTT15=
EXTT16=
EXTT17=
EXTT18=
EXTT19=
EXTT20=
EXTT21=
EXTT22=
EXTT23=
PLAYORDER=
